# xmcd
#
# Track frame offsets: 
#        150
#        16402
#        37519
#        55222
#        70491
#        87655
#        108010
#        126334
#        141935
#        163247
#        185171
#        205614
#        223452
#        243849
#        258242
#
# Disc length: 3715 seconds
#
# Revision: 0
# Processed by: cddbd v1.5.2PL0 Copyright (c) Steve Scherf et al.
# Submitted via: ExactAudioCopyFreeDBPlugin 1.0
#
DISCID=dd0e810f
DTITLE=陳影  - The Selection of Golden Ears
DYEAR=1900
DGENRE=R&B
TTITLE0=陳影 - 等一個晴天
TTITLE1=陳影 - 女人花
TTITLE2=陳影 - 紅豆
TTITLE3=陳影 - 遇見
TTITLE4=陳影 - 一直很安靜
TTITLE5=陳影 - 女人的情歌
TTITLE6=陳影 - 約定
TTITLE7=陳影 - 壐度重相逢
TTITLE8=陳影 - 愛的代價
TTITLE9=陳影 - 愛很簡單
TTITLE10=陳影 - 愛一個人好難
TTITLE11=陳影 - 別說我的眼泪失無所謂
TTITLE12=陳影 - 不是畎為寂寞才想你
TTITLE13=陳影 - 十年
TTITLE14=陳影 - 有多少愛可以重來
EXTD=
EXTT0=
EXTT1=
EXTT2=
EXTT3=
EXTT4=
EXTT5=
EXTT6=
EXTT7=
EXTT8=
EXTT9=
EXTT10=
EXTT11=
EXTT12=
EXTT13=
EXTT14=
PLAYORDER=
